<mxfile host="app.diagrams.net" modified="2023-04-09T08:34:27.699Z" agent="Mozilla/5.0 (Macintosh; Intel Mac OS X 10_15_7) AppleWebKit/537.36 (KHTML, like Gecko) Chrome/111.0.0.0 Safari/537.36" version="21.1.5" etag="NISIedD9sC6K5VKWBAa4" type="github">
  <diagram name="페이지-1" id="y99VKpfoFAc44_1_6t4f">
    <mxGraphModel>
      <root>
        <mxCell id="0" />
        <mxCell id="1" parent="0" />
      </root>
    </mxGraphModel>
  </diagram>
</mxfile>
